<svg xmlns="http://www.w3.org/2000/svg" version="1.1" xmlns:xlink="http://www.w3.org/1999/xlink" width="200" height="200"><svg width="200" height="200" viewBox="0 0 200 200" fill="none" xmlns="http://www.w3.org/2000/svg">
<rect width="200" height="200" rx="40" fill="#44FF4E"></rect>
<path d="M40.76 140C39.9093 140 39.252 139.768 38.788 139.304C38.324 138.763 38.092 138.105 38.092 137.332V61.584C38.092 60.7333 38.324 60.076 38.788 59.612C39.252 59.0707 39.9093 58.8 40.76 58.8H72.544C78.344 58.8 83.0613 59.7667 86.696 61.7C90.408 63.556 93.1147 66.108 94.816 69.356C96.5947 72.604 97.484 76.2387 97.484 80.26C97.484 83.4307 96.9427 86.176 95.86 88.496C94.8547 90.7387 93.5787 92.5947 92.032 94.064C90.4853 95.456 88.9773 96.5387 87.508 97.312C90.524 98.7813 93.192 101.179 95.512 104.504C97.9093 107.829 99.108 111.851 99.108 116.568C99.108 120.821 98.1413 124.727 96.208 128.284C94.2747 131.841 91.3747 134.703 87.508 136.868C83.7187 138.956 79.0013 140 73.356 140H40.76ZM49.46 130.604H71.848C76.8747 130.604 80.7413 129.251 83.448 126.544C86.1547 123.837 87.508 120.512 87.508 116.568C87.508 112.469 86.1547 109.105 83.448 106.476C80.7413 103.769 76.8747 102.416 71.848 102.416H49.46V130.604ZM49.46 93.136H70.804C75.7533 93.136 79.504 92.0147 82.056 89.772C84.608 87.452 85.884 84.32 85.884 80.376C85.884 76.432 84.608 73.416 82.056 71.328C79.504 69.24 75.7533 68.196 70.804 68.196H49.46V93.136ZM134.746 140C133.973 140 133.316 139.768 132.774 139.304C132.31 138.763 132.078 138.105 132.078 137.332V69.124H109.806C109.033 69.124 108.376 68.892 107.834 68.428C107.37 67.8867 107.138 67.2293 107.138 66.456V61.584C107.138 60.7333 107.37 60.076 107.834 59.612C108.376 59.0707 109.033 58.8 109.806 58.8H165.718C166.569 58.8 167.226 59.0707 167.69 59.612C168.232 60.076 168.502 60.7333 168.502 61.584V66.456C168.502 67.2293 168.232 67.8867 167.69 68.428C167.226 68.892 166.569 69.124 165.718 69.124H143.562V137.332C143.562 138.105 143.292 138.763 142.75 139.304C142.286 139.768 141.629 140 140.778 140H134.746Z" fill="#22252C"></path>
</svg><style>@media (prefers-color-scheme: light) { :root { filter: none; } }
@media (prefers-color-scheme: dark) { :root { filter: none; } }
</style></svg>